<?xml version="1.0" standalone="no"?><svg xmlns="http://www.w3.org/2000/svg" viewBox="0 0 1440 320"><path fill="#3875f4" fill-opacity="0.9" d="M0,192L34.3,165.3C68.6,139,137,85,206,96C274.3,107,343,181,411,218.7C480,256,549,256,617,218.7C685.7,181,754,107,823,106.7C891.4,107,960,181,1029,208C1097.1,235,1166,213,1234,186.7C1302.9,160,1371,128,1406,112L1440,96L1440,320L1405.7,320C1371.4,320,1303,320,1234,320C1165.7,320,1097,320,1029,320C960,320,891,320,823,320C754.3,320,686,320,617,320C548.6,320,480,320,411,320C342.9,320,274,320,206,320C137.1,320,69,320,34,320L0,320Z"></path></svg>